
<svg width="195.773422px" height="255px" viewBox="0 0 195.773422 255" version="1.1" xmlns="http://www.w3.org/2000/svg" xmlns:xlink="http://www.w3.org/1999/xlink">
    <defs>
        <radialGradient cx="50%" cy="35.9236923%" fx="50%" fy="35.9236923%" r="67.4183239%" gradientTransform="translate(0.5, 0.3592), scale(1, 0.7677), rotate(90), translate(-0.5, -0.3592)" id="radialGradient-1ats415cog-1">
            <stop stop-color="#7F83E8" offset="0%"></stop>
            <stop stop-color="#656DEE" offset="100%"></stop>
        </radialGradient>
    </defs>
    <g id="page" stroke="none" stroke-width="1" fill="none" fill-rule="evenodd">
        <g id="icon" transform="translate(-30, -1)" fill="url(#radialGradient-1ats415cog-1)">
            <path d="M96.8088719,6.30451537 C113.718988,11.9276675 127.607274,10.3138229 127.883349,10.2809837 L126.877014,10.2801203 C127.663395,10.2679857 147.44287,9.9340045 159.439373,6.87251054 C171.680262,3.7485371 191.60845,-2.78340735 207.835329,7.44050571 C224.06265,17.6648591 225.485619,31.5803004 225.770301,40.6686634 C225.935416,45.9396586 219.521681,63.9643281 213.096757,82.2875126 L212.100606,85.1314377 C207.791435,97.450558 203.630802,109.613365 201.615441,117.833176 C197.506273,134.592751 197.617613,144.683765 196.976551,153.969159 L196.916061,154.811229 C196.758964,156.911673 196.555219,158.979681 196.246447,161.08408 C195.887748,163.529206 195.6778,166.224858 195.372212,169.015846 L195.282088,169.815731 C194.086679,180.110776 191.292536,191.488861 174.852145,196.29978 C158.026037,201.223571 145.453841,197.504944 135.16808,195.707574 L134.821626,251.074646 C134.804668,253.804997 131.135763,256.01006 126.626897,255.999965 C122.285025,255.989902 118.747543,253.929348 118.506606,251.338652 L118.493577,251.037459 L118.841297,195.611395 C107.365408,197.179899 92.3321379,200.404161 78.6565409,196.29978 C61.2560639,191.077472 62.0951155,167.757447 62.0951155,161.08408 C62.0951155,154.410713 59.2308358,131.831888 54.6759224,118.484002 C52.6260127,112.477453 47.9820268,100.029749 43.286247,87.1190857 L42.6600593,85.3954452 L42.0345969,83.6694668 C36.7250431,68.9976364 31.6392224,54.4137063 30.4779446,48.6201555 C28.2004879,37.2602521 33.9205419,18.7067704 50.6903731,8.00850088 C67.4602043,-2.68976869 79.7275051,0.62456367 96.8088719,6.30451537 Z" id="Shape-combination"></path>
        </g>
    </g>
</svg>