<svg width="204.066366px" height="239.307174px" viewBox="0 0 204.066366 239.307174" version="1.1" xmlns="http://www.w3.org/2000/svg" xmlns:xlink="http://www.w3.org/1999/xlink">
    <g id="page" stroke="none" stroke-width="1" fill="none" fill-rule="evenodd">
        <g id="basjoofan" transform="translate(-25.9668, -7.6928)" fill="#A07EFF">
            <path d="M149.372893,13.3239449 L170.27907,8.75 C193.948565,3.57148412 217.512957,17.8941027 223.814984,41.2895404 L226.591314,51.5962962 C232.670998,74.1663174 230.652178,98.1529911 220.885565,119.389321 L203.700188,156.756864 C198.609591,167.825757 195.584552,179.731725 194.774126,191.888114 L194,203.5 C193.041455,217.878174 180.608588,228.756932 166.230415,227.798387 C165.003515,227.716594 163.783931,227.548173 162.580783,227.294384 L148.639572,224.35366 C135.029602,221.482807 120.970398,221.482807 107.360428,224.35366 L93.419217,227.294384 C79.3193967,230.268565 65.4781841,221.249452 62.5040032,207.149632 C62.2502142,205.946484 62.0817933,204.7269 62,203.5 L61.2258742,191.888114 C60.4154483,179.731725 57.3904092,167.825757 52.2998121,156.756864 L35.1144348,119.389321 C25.3478218,98.1529911 23.3290015,74.1663174 29.408686,51.5962962 L32.1850159,41.2895404 C38.4870427,17.8941027 62.0514346,3.57148412 85.7209302,8.75 L106.627107,13.3239449 C120.709157,16.4048775 135.290843,16.4048775 149.372893,13.3239449 Z" id="Polygon"></path>
            <rect id="Rectangle" x="116" y="213" width="23" height="34" rx="10"></rect>
        </g>
    </g>
</svg>